<svg width="375" height="96" viewBox="0 0 375 96" fill="none" xmlns="http://www.w3.org/2000/svg">
<path fill-rule="evenodd" clip-rule="evenodd" d="M0 8.5V95.5H375V83C375 83 336.5 97 298.5 93C260.5 89 207.5 69 176 40C144.5 11 105 0 61 0C17 0 0 8.5 0 8.5Z" fill="white"/>
<path fill-rule="evenodd" clip-rule="evenodd" d="M159.682 27.0234C165.331 30.8751 170.775 35.1899 176 40C207.5 69 260.5 89 298.5 93C336.5 97 375 83 375 83V52C375 52 352 65 303 65C263.675 65 229.825 51.962 204.034 42.0281C197.689 39.584 191.831 37.3279 186.5 35.5C179.283 33.0257 170.102 30.0523 159.682 27.0234Z" fill="#FBE6D4"/>
</svg>
