<svg viewBox="0 0 1920 239" fill="none" xmlns="http://www.w3.org/2000/svg">
<path fill-rule="evenodd" clip-rule="evenodd" d="M0 67V239H1920V67C1920 67 1726.5 135.5 1524 135.5C1321.5 135.5 1141 100 992 67C987.253 65.9487 982.508 64.8964 977.764 63.8441C833.589 31.8682 689.899 0 504.5 0C313 0 0 67 0 67Z" fill="white"/>
<path fill-rule="evenodd" clip-rule="evenodd" d="M0 67V239H1920V67C1920 67 1726.5 135.5 1524 135.5C1321.5 135.5 1141 100 992 67C987.253 65.9487 982.508 64.8964 977.764 63.8442C833.589 31.8682 689.899 0 504.5 0C313 0 0 67 0 67Z" fill="white"/>
<path fill-rule="evenodd" clip-rule="evenodd" d="M0 67V71.5C0 71.5 253.5 30.5 504.5 51C673.334 64.7892 781.992 98.9387 880.385 129.862C928.27 144.912 973.724 159.197 1022.5 170C1029.36 171.52 1036.23 173.046 1043.1 174.573C1185.43 206.196 1330.83 238.5 1524 238.5C1726.5 238.5 1920 170 1920 170V67C1920 67 1726.5 135.5 1524 135.5C1321.5 135.5 1141 100 992 67C987.253 65.9487 982.508 64.8964 977.764 63.8441C833.589 31.8682 689.899 0 504.5 0C313 0 0 67 0 67Z" fill="#EA7F1B" fill-opacity="0.1"/>
<path fill-rule="evenodd" clip-rule="evenodd" d="M0 67V71.5C0 71.5 253.5 30.5 504.5 51C673.334 64.7892 781.992 98.9387 880.385 129.862C928.27 144.912 973.724 159.197 1022.5 170C1029.36 171.52 1036.23 173.046 1043.1 174.573C1185.43 206.196 1330.83 238.5 1524 238.5C1726.5 238.5 1920 170 1920 170V67C1920 67 1726.5 135.5 1524 135.5C1321.5 135.5 1141 100 992 67C987.253 65.9487 982.508 64.8964 977.764 63.8442C833.589 31.8682 689.899 0 504.5 0C313 0 0 67 0 67Z" fill="#EA7F1B" fill-opacity="0.1"/>
</svg>
